<?xml version="1.0" encoding="UTF-8" standalone="no"?>
<!-- Created with Inkscape (http://www.inkscape.org/) -->

<svg
   xmlns:dc="http://purl.org/dc/elements/1.1/"
   xmlns:cc="http://creativecommons.org/ns#"
   xmlns:rdf="http://www.w3.org/1999/02/22-rdf-syntax-ns#"
   xmlns:svg="http://www.w3.org/2000/svg"
   xmlns="http://www.w3.org/2000/svg"
   xmlns:sodipodi="http://sodipodi.sourceforge.net/DTD/sodipodi-0.dtd"
   xmlns:inkscape="http://www.inkscape.org/namespaces/inkscape"
   width="297mm"
   height="210mm"
   viewBox="0 0 1052.3622 744.09448"
   id="svg2"
   version="1.1"
   inkscape:version="0.91 r13725"
   sodipodi:docname="logo.svg">
  <defs
     id="defs4" />
  <sodipodi:namedview
     id="base"
     pagecolor="#ffffff"
     bordercolor="#666666"
     borderopacity="1.0"
     inkscape:pageopacity="0.0"
     inkscape:pageshadow="2"
     inkscape:zoom="0.24748737"
     inkscape:cx="836.61789"
     inkscape:cy="-58.284525"
     inkscape:document-units="px"
     inkscape:current-layer="layer1"
     showgrid="false"
     inkscape:snap-nodes="false"
     inkscape:window-width="1366"
     inkscape:window-height="705"
     inkscape:window-x="-8"
     inkscape:window-y="-8"
     inkscape:window-maximized="1" />
  <metadata
     id="metadata7">
    <rdf:RDF>
      <cc:Work
         rdf:about="">
        <dc:format>image/svg+xml</dc:format>
        <dc:type
           rdf:resource="http://purl.org/dc/dcmitype/StillImage" />
        <dc:title></dc:title>
      </cc:Work>
    </rdf:RDF>
  </metadata>
  <g
     inkscape:label="Capa 1"
     inkscape:groupmode="layer"
     id="layer1"
     transform="translate(0,-308.26772)">
    <path
       style="fill:#000000;fill-rule:evenodd;stroke:#ffffff;stroke-width:1.77761507;stroke-linecap:butt;stroke-linejoin:miter;stroke-miterlimit:4;stroke-dasharray:none;stroke-opacity:1"
       d="M 219.17578 140.18945 C 218.89234 140.14589 218.68355 140.21926 218.55859 140.41992 C 195.9371 163.53752 186.50349 197.42983 196.31641 247.04492 L 204.16211 274.99414 C 185.12341 298.19368 165.3162 319.06435 154.57031 339.16016 C 144.80554 361.30829 137.5823 383.69304 148.04883 407.73438 C 159.18612 426.26423 165.61676 445.26547 193.80664 459.81836 C 216.44891 464.02568 232.64764 464.84923 250.07617 463.40625 C 252.25939 462.55773 254.33349 461.72715 256.35742 460.90234 L 271.63477 515.32031 C 269.45065 533.29066 262.04063 540.19992 251.8418 549.84375 C 229.65279 556.44102 209.44033 549.57538 221.03711 546.33203 C 222.98856 545.78625 236.84065 542.97192 241.1582 534.06445 C 244.91438 526.31518 239.71364 510.82076 238.88477 511.3125 C 230.79645 496.17703 221.03043 498.52944 212.41602 497.30469 C 193.89667 507.93267 193.76001 518.88419 191.85352 529.97461 C 195.96782 539.69087 204.35816 549.24355 214.89258 558.23242 C 227.9647 560.91785 240.94931 564.83205 254.83008 555.99414 C 269.10609 545.87026 274.72709 531.59387 276.74609 515.58984 L 261.27734 458.8457 C 281.63612 450.12084 293.16475 442.09098 298.54688 429.36523 C 303.43005 410.62791 307.99194 391.83429 299.42188 370.74414 C 287.55126 351.5344 271.80163 331.31617 235.89648 337.125 C 233.32181 337.62355 230.88131 338.19916 228.56055 338.8418 L 218.44141 301.7207 C 224.01919 296.11318 229.69382 290.5534 235.32617 284.97266 C 250.48217 277.93294 258.03236 216.01979 251.65234 193.41602 C 244.4867 168.02892 223.42747 140.84296 219.17578 140.18945 z M 225.53906 166.65234 C 233.37203 182.19752 246.76661 186.06067 240.26758 220.9668 C 232.2281 238.05571 221.13694 253.78233 209.39453 268.54102 L 202.375 242.78906 C 199.80716 209.25649 206.51678 183.07632 225.53906 166.65234 z M 369.09766 212.92969 C 366.10747 212.92969 363.00781 215.77229 359.79883 221.46094 C 338.35699 228.89994 320.5608 234.80771 306.41211 239.18359 C 298.46259 241.88206 294.48828 246.07697 294.48828 251.76562 C 294.48828 256.21444 297.87949 263.72573 304.66211 274.30078 C 306.2666 276.85338 308.08878 278.12891 310.13086 278.12891 C 311.37069 278.12891 311.99219 277.54581 311.99219 276.37891 C 311.99219 276.01425 311.9193 275.61337 311.77344 275.17578 C 309.43963 267.51798 308.27148 263.58012 308.27148 263.36133 C 308.27148 260.517 310.20495 257.59956 314.07031 254.60938 C 322.23863 248.26434 335.07459 241.84636 352.57812 235.35547 C 338.21064 270.7272 330.80868 296.32623 330.37109 312.15234 C 330.1523 320.46652 331.24561 326.15563 333.65234 329.21875 C 335.03804 330.9691 339.92343 334.39675 348.31055 339.50195 C 351.4466 342.78387 354.18182 344.42383 356.51562 344.42383 C 359.35995 344.42383 362.96982 342.19882 367.3457 337.75 C 383.68234 321.04871 398.77975 300.51925 412.63672 276.16016 C 402.28046 313.06345 390.39204 343.65915 376.97266 367.94531 C 373.90954 373.56103 370.33611 376.36719 366.25195 376.36719 C 364.2828 376.36719 359.43385 374.83656 351.70312 371.77344 C 350.82795 371.40878 349.9533 371.22656 349.07812 371.22656 C 346.67139 371.22656 345.4668 372.06476 345.4668 373.74219 C 345.4668 374.83616 346.26856 375.96786 347.87305 377.13477 C 361.94881 387.12637 371.46645 392.12109 376.42578 392.12109 C 379.78063 392.12109 382.73451 390.33536 385.28711 386.76172 C 387.32919 383.99033 389.95508 378.7021 393.16406 370.89844 C 398.1234 358.71889 405.27025 337.31283 414.60547 306.68164 C 424.08655 275.467 429.84855 257.27188 431.89062 252.09375 C 440.78826 239.40368 445.23633 231.2709 445.23633 227.69727 C 445.23633 226.31157 444.76256 225.03604 443.81445 223.86914 C 440.6784 220.36843 438.05446 218.61719 435.93945 218.61719 C 433.0222 218.61719 430.61497 222.33639 428.71875 229.77539 C 409.53779 269.88767 387.00198 302.96349 361.11133 329 C 358.33993 331.77139 355.60471 333.15625 352.90625 333.15625 C 347.29053 333.15625 344.48242 327.94091 344.48242 317.51172 C 344.48242 306.93666 347.10831 293.08029 352.35938 275.94141 C 358.41268 256.24992 365.81464 240.31431 374.56641 228.13477 C 381.0573 226.60321 384.30273 225.03613 384.30273 223.43164 C 384.30273 222.70233 383.79252 221.89861 382.77148 221.02344 C 376.79111 215.62651 372.23371 212.92969 369.09766 212.92969 z M 634.93164 235.13672 C 634.20233 235.13672 632.99969 236.08425 631.32227 237.98047 C 629.20725 240.53307 624.79367 244.72603 618.08398 250.56055 C 617.4276 250.41468 616.99028 250.48757 616.77148 250.7793 C 616.62562 251.07102 616.66207 251.47386 616.88086 251.98438 C 617.17259 252.42196 617.57346 252.85929 618.08398 253.29688 C 619.68848 254.46378 621.5855 255.26554 623.77344 255.70312 C 627.6388 256.50537 631.64955 255.48495 635.80664 252.64062 C 642.07874 248.19181 645.21484 244.90993 645.21484 242.79492 C 645.21484 241.70095 644.63175 240.71502 643.46484 239.83984 C 639.08896 236.70379 636.24441 235.13672 634.93164 235.13672 z M 585.26562 268.2832 C 583.07768 268.2832 581.28999 269.998 579.9043 273.42578 C 576.69531 281.66703 575.0918 288.26723 575.0918 293.22656 C 575.0918 295.99796 575.56556 298.22297 576.51367 299.90039 C 574.90918 306.02663 571.66375 314.15746 566.77734 324.29492 C 561.30749 335.59929 555.76416 345.15337 550.14844 352.95703 C 548.32515 355.4367 546.72163 356.67578 545.33594 356.67578 C 543.95024 356.67578 542.85498 355.50959 542.05273 353.17578 C 539.93772 347.26834 538.88086 339.90283 538.88086 331.07812 C 538.88086 313.93924 542.08985 298.51384 548.50781 284.80273 C 551.13334 283.92756 552.44727 282.57914 552.44727 280.75586 C 552.44727 279.80775 551.97155 278.93115 551.02344 278.12891 C 546.50169 274.6282 543.14693 272.87891 540.95898 272.87891 C 538.98984 272.87891 537.09477 274.19088 535.27148 276.81641 C 528.19714 286.58922 522.47159 294.43045 518.0957 300.33789 C 517.43932 301.21307 517.11133 301.97838 517.11133 302.63477 C 517.11133 303.8746 517.80376 304.49414 519.18945 304.49414 C 520.21049 304.49414 521.12158 304.05682 521.92383 303.18164 C 526.44558 298.2223 529.50879 295.01332 531.11328 293.55469 C 528.26896 301.72301 526.84766 314.08519 526.84766 330.64062 C 526.84766 342.23672 527.79519 351.17126 529.69141 357.44336 C 531.0771 361.89218 533.04701 364.11523 535.59961 364.11523 C 536.83944 364.11523 538.84384 363.53214 541.61523 362.36523 C 543.36559 364.18852 545.37194 365.09961 547.63281 365.09961 C 550.03955 365.09961 552.44678 363.89697 554.85352 361.49023 C 557.62491 358.64591 562.21875 351.24395 568.63672 339.2832 C 574.76296 328.05177 580.2334 317.00155 585.04688 306.13477 C 586.35964 307.73926 587.89027 308.54102 589.64062 308.54102 C 590.88046 308.54102 591.86639 308.17658 592.5957 307.44727 C 593.32502 306.71795 593.43435 305.98908 592.92383 305.25977 C 590.15243 301.75906 588.51052 299.27894 588 297.82031 C 590.33381 292.13166 592.41304 287.20982 594.23633 283.05273 C 595.25737 279.69789 595.76758 277.36355 595.76758 276.05078 C 595.76758 274.2275 594.82004 272.76975 592.92383 271.67578 C 589.05846 269.41491 586.50546 268.2832 585.26562 268.2832 z M 685.69141 269.5957 C 684.08692 269.96036 683.46737 271.23784 683.83203 273.42578 C 678.94563 271.31077 675.88241 270.25195 674.64258 270.25195 C 671.94412 270.25195 668.91735 272.29475 665.5625 276.37891 C 660.38437 282.50515 654.54949 292.86098 648.05859 307.44727 C 646.81876 306.79088 645.61612 306.46289 644.44922 306.46289 C 642.91766 306.46289 642.15234 306.9731 642.15234 307.99414 C 642.15234 309.23397 643.50076 310.5479 646.19922 311.93359 C 642.18799 324.04021 639.52566 335.08847 638.21289 345.08008 C 638.06703 345.95526 637.99414 346.79346 637.99414 347.5957 C 637.99414 351.89866 640.72936 355.32826 646.19922 357.88086 C 651.45028 362.6214 655.79097 364.99023 659.21875 364.99023 C 666.43896 364.99023 678.91048 353.65042 696.63281 330.96875 C 697.36213 330.09357 697.72656 329.25537 697.72656 328.45312 C 697.72656 327.14036 697.03218 326.48242 695.64648 326.48242 C 694.69838 326.48242 693.75084 326.95619 692.80273 327.9043 C 677.70593 343.14696 665.92684 352.26372 657.4668 355.25391 C 656.0811 355.69149 654.95135 355.91016 654.07617 355.91016 C 651.74237 355.91016 650.53973 354.01509 650.4668 350.22266 C 650.32093 343.80469 651.26847 336.43723 653.31055 328.12305 C 654.84211 321.55922 656.22696 317.14759 657.4668 314.88672 C 664.39528 316.49121 669.35552 317.29297 672.3457 317.29297 C 678.03435 317.29297 683.14036 315.65301 687.66211 312.37109 C 692.62145 308.79745 695.09961 302.48881 695.09961 293.44531 C 695.09961 292.13255 695.06317 289.5431 694.99023 285.67773 C 694.9173 281.81237 694.88086 278.56694 694.88086 275.94141 C 694.88086 275.06623 694.99019 274.1187 695.20898 273.09766 C 695.42778 272.07662 695.53711 271.45708 695.53711 271.23828 C 695.53711 270.14431 693.97004 269.5957 690.83398 269.5957 L 685.69141 269.5957 z M 477.18164 270.91016 C 474.48318 270.83722 471.41996 272.4043 467.99219 275.61328 C 457.41713 285.45902 448.04527 297.56611 439.87695 311.93359 C 431.70863 326.22815 426.96706 338.77256 425.6543 349.56641 C 425.50843 350.58745 425.43555 351.49854 425.43555 352.30078 C 425.43555 356.38494 427.36901 359.59393 431.23438 361.92773 C 433.93284 364.04275 435.93919 365.09961 437.25195 365.09961 C 438.85644 365.09961 441.18883 364.04275 444.25195 361.92773 C 448.48198 358.93755 455.37567 352.00936 464.92969 341.14258 C 475.8694 328.67131 484.51044 317.29309 490.85547 307.00977 C 486.26079 319.26224 482.43226 334.6512 479.36914 353.17578 C 479.00448 355.58252 479.00448 357.18799 479.36914 357.99023 C 479.66087 358.86541 480.79062 359.95872 482.75977 361.27148 C 486.11461 363.60529 488.41251 364.77148 489.65234 364.77148 C 490.96511 364.77148 491.94909 363.31374 492.60547 360.39648 C 494.86634 350.04022 499.4257 339.79372 506.28125 329.65625 C 506.8647 328.78107 507.15625 328.0138 507.15625 327.35742 C 507.15625 326.26345 506.6096 325.7168 505.51562 325.7168 C 504.34872 325.7168 503.25346 326.37278 502.23242 327.68555 C 501.79483 328.0502 500.66508 329.29124 498.8418 331.40625 C 497.09144 333.52126 495.67014 335.08834 494.57617 336.10938 C 497.12877 323.49224 501.75906 307.88462 508.46875 289.28711 C 509.271 287.09917 509.59899 285.56854 509.45312 284.69336 C 509.30726 283.67232 508.39617 282.54257 506.71875 281.30273 C 502.70752 278.31255 500.15452 276.81641 499.06055 276.81641 C 497.96658 276.81641 496.94616 278.45832 495.99805 281.74023 C 495.4146 283.63645 494.13712 286.91833 492.16797 291.58594 C 489.46951 297.93097 483.34308 307.33928 473.78906 319.81055 C 464.45384 331.84423 455.70347 341.83563 447.53516 349.78516 C 444.10738 353.21293 441.1535 354.92578 438.67383 354.92578 C 437.2152 354.92578 436.48633 354.01469 436.48633 352.19141 C 436.48633 351.75382 436.52277 351.28005 436.5957 350.76953 C 438.56485 339.10051 444.36133 325.973 453.98828 311.38672 C 462.30246 298.69665 469.88859 289.835 476.74414 284.80273 C 479.88019 282.46893 484.03671 282.39604 489.21484 284.58398 C 489.72536 284.80278 490.27202 284.91211 490.85547 284.91211 C 492.38703 284.91211 493.15234 284.32901 493.15234 283.16211 C 493.15234 282.50573 492.82435 281.88619 492.16797 281.30273 C 484.8019 274.52011 479.80717 271.05602 477.18164 270.91016 z M 803.8418 271.78516 C 801.14333 271.78516 799.20987 273.93533 798.04297 278.23828 C 797.31365 281.52019 796.58478 284.83851 795.85547 288.19336 C 795.12615 290.16251 794.76172 291.87731 794.76172 293.33594 C 794.76172 294.94043 795.27193 296.47106 796.29297 297.92969 C 797.31401 299.31538 798.29799 300.62931 799.24609 301.86914 C 796.69349 312.51713 789.98397 328.34341 779.11719 349.34766 C 777.14804 353.14009 775.47163 355.03516 774.08594 355.03516 C 772.8461 355.03516 771.82373 353.43164 771.02148 350.22266 C 768.10423 338.69949 766.64648 327.57639 766.64648 316.85547 C 766.64648 311.67734 766.97448 306.68261 767.63086 301.86914 C 770.83984 297.42032 773.53862 292.1321 775.72656 286.00586 C 776.89347 282.79688 777.47656 280.86537 777.47656 280.20898 C 777.47656 279.04208 776.45614 277.7646 774.41406 276.37891 C 770.76749 273.82631 768.06871 272.55078 766.31836 272.55078 C 764.20335 272.55078 762.26989 274.11786 760.51953 277.25391 C 758.40452 280.82755 756.87389 285.13179 755.92578 290.16406 C 755.34233 293.15425 754.75728 298.11253 754.17383 305.04102 C 749.36035 317.43936 740.282 330.20242 726.93555 343.33008 C 731.96781 326.33706 734.48242 306.3907 734.48242 283.49023 C 734.48242 279.47901 734.37309 276.96245 734.1543 275.94141 C 733.86257 274.55571 733.06081 273.86328 731.74805 273.86328 C 731.01873 273.86328 729.99831 274.00906 728.68555 274.30078 C 723.65328 275.54062 720.88161 276.26949 720.37109 276.48828 C 718.25608 277.36346 716.54128 279.04182 715.22852 281.52148 C 711.07143 288.01238 707.86244 292.71556 705.60156 295.63281 C 705.09104 296.2892 704.83594 296.94518 704.83594 297.60156 C 704.83594 299.13312 705.63965 299.90039 707.24414 299.90039 C 708.33811 299.90039 709.28565 299.35178 710.08789 298.25781 C 714.9743 291.91278 718.18328 287.97492 719.71484 286.44336 C 720.22536 288.6313 720.48047 291.73096 720.48047 295.74219 C 720.48047 303.69171 719.60582 313.20935 717.85547 324.29492 C 716.03218 335.59929 713.88006 344.86182 711.40039 352.08203 C 708.4102 354.34291 706.91602 356.01931 706.91602 357.11328 C 706.91602 357.8426 707.46267 358.60986 708.55664 359.41211 C 712.93253 362.76695 716.14151 364.44336 718.18359 364.44336 C 719.78808 364.44336 721.02717 363.75093 721.90234 362.36523 C 723.6527 359.81263 728.5036 353.75909 736.45312 344.20508 C 744.84024 334.21347 750.81894 326.66575 754.39258 321.56055 C 754.39258 329.94766 756.03449 340.70438 759.31641 353.83203 C 760.19158 357.11394 761.02979 359.15674 761.83203 359.95898 C 762.63428 360.76123 764.71351 361.70876 768.06836 362.80273 C 772.00666 364.04257 774.55966 364.66211 775.72656 364.66211 C 778.35209 364.66211 780.90314 362.91282 783.38281 359.41211 C 789.87371 350.36861 797.71494 333.19197 806.9043 307.88477 C 807.70654 308.24942 808.69052 308.83447 809.85742 309.63672 C 812.33709 311.24121 813.79679 312.04297 814.23438 312.04297 C 816.20352 312.04297 817.1875 310.94771 817.1875 308.75977 C 817.1875 307.66579 816.67729 306.64537 815.65625 305.69727 C 812.37434 302.63415 810.40443 300.70264 809.74805 299.90039 C 810.98788 296.9102 812.22892 293.95632 813.46875 291.03906 C 815.14617 286.9549 815.98438 283.70947 815.98438 281.30273 C 815.98438 278.38548 814.89107 276.2698 812.70312 274.95703 C 808.98362 272.84202 806.02974 271.78516 803.8418 271.78516 z M 615.24023 273.53516 C 614.14626 273.53516 613.01651 274.1547 611.84961 275.39453 C 607.98424 279.69748 604.33793 284.25489 600.91016 289.06836 C 600.25377 289.94354 599.92383 290.67436 599.92383 291.25781 C 599.92383 293.22696 601.12842 293.11763 603.53516 290.92969 L 610.31836 284.58398 C 611.99578 282.97949 613.16198 282.17773 613.81836 282.17773 C 614.69354 282.17773 615.02153 283.8177 614.80273 287.09961 C 614.21928 294.75741 611.62984 306.46361 607.03516 322.2168 C 602.22168 338.4805 597.8465 350.07542 593.9082 357.00391 C 593.10596 358.46253 592.70508 359.41202 592.70508 359.84961 C 592.70508 360.36013 593.65261 361.12544 595.54883 362.14648 C 598.53902 363.82391 600.9098 364.66211 602.66016 364.66211 C 604.41051 364.66211 605.61315 363.82391 606.26953 362.14648 C 608.31161 356.74956 611.5206 350.55024 615.89648 343.54883 C 621.65807 334.35947 624.72128 329.36475 625.08594 328.5625 C 625.96111 326.52042 625.81534 325.49805 624.64844 325.49805 C 624.13792 325.49805 623.62771 325.82604 623.11719 326.48242 C 619.39769 331.51469 616.48025 334.97878 614.36523 336.875 C 621.73131 313.97454 626.28871 297.6016 628.03906 287.75586 C 628.33079 286.07844 628.47656 284.58425 628.47656 283.27148 C 628.47656 280.50009 627.63836 278.60307 625.96094 277.58203 C 625.59628 277.36324 623.73766 276.81658 620.38281 275.94141 C 618.12194 274.33692 616.40714 273.53516 615.24023 273.53516 z M 681.97266 278.34766 C 683.21249 278.34766 683.83203 279.77091 683.83203 282.61523 C 683.83203 295.37823 683.94136 299.89919 684.16016 296.17969 C 683.94136 301.21196 682.73872 304.82182 680.55078 307.00977 C 677.63352 309.92702 673.21994 311.27739 667.3125 311.05859 C 663.66593 310.8398 661.11488 310.62114 659.65625 310.40234 C 665.05317 295.96192 671.32538 285.85924 678.47266 280.09766 C 680.00422 278.93075 681.17041 278.34766 681.97266 278.34766 z M 213.16992 307.07617 L 222.62109 340.73633 C 203.61904 347.63068 194.05961 359.88526 188.28711 374.28711 C 187.96662 387.04599 182.13657 399.28956 191.06641 412.91406 C 202.30264 437.88894 218.77106 440.46191 238.57812 445.13867 C 220.43254 433.40572 198.56355 425.9733 196.80273 395.31445 C 204.71072 374.47151 215.66548 364.67322 228.39258 361.29492 L 252.42578 446.90234 C 249.66757 448.47056 247.19853 449.69537 245.32031 450.38281 C 242.93557 451.25566 196.78516 448.14648 196.78516 448.14648 C 165.28936 419.91401 164.62724 420.25126 162.96289 385.01953 C 170.55227 354.54992 190.63489 330.21094 213.16992 307.07617 z M 245.62109 359.2832 C 270.83266 358.80827 287.76423 373.62384 290.88867 402.54688 C 291.81303 416.85233 272.08385 434.40834 257.22852 443.99414 L 234.37695 360.17773 C 235.42106 360.05823 236.47403 359.97263 237.53711 359.92188 C 240.31631 359.54414 243.013 359.33233 245.62109 359.2832 z M 672.07617 372.45312 C 669.8153 372.45312 667.88379 373.69221 666.2793 376.17188 C 662.55979 381.86053 659.42369 387.62252 656.87109 393.45703 C 636.30444 417.45147 613.14713 450.81688 587.40234 493.55469 C 580.76559 472.98803 571.02929 450.23356 558.19336 425.29102 C 564.83012 406.98523 568.22132 395.93696 568.36719 392.14453 C 568.44012 389.15434 567.89347 387.18444 566.72656 386.23633 C 562.71533 383.10028 560.16233 381.5332 559.06836 381.5332 C 557.90146 381.5332 557.31836 383.50116 557.31836 387.43945 C 557.31836 395.09725 555.24107 403.66735 551.08398 413.14844 C 534.09096 387.11192 520.26908 373.91153 509.62109 373.54688 C 500.65053 373.18222 491.24223 382.88207 481.39648 402.64648 C 480.9589 403.52166 480.74023 404.28698 480.74023 404.94336 C 480.74023 406.25612 481.39817 406.91211 482.71094 406.91211 C 484.38836 406.91211 486.02832 406.00102 487.63281 404.17773 C 490.47714 401.04168 493.32169 397.94203 496.16602 394.87891 C 499.22914 392.03458 502.14658 390.61133 504.91797 390.61133 C 506.88712 390.61133 508.9644 391.26927 511.15234 392.58203 C 524.35293 400.31276 535.40315 413.95047 544.30078 433.49609 C 535.76781 458.36571 524.71759 482.06771 511.15234 504.60352 C 504.88024 508.54181 499.30242 512.6274 494.41602 516.85742 C 493.10325 518.02432 492.44727 519.0083 492.44727 519.81055 C 492.44727 520.68572 493.24902 521.81548 494.85352 523.20117 C 500.03165 527.64999 503.86018 529.875 506.33984 529.875 C 508.0902 529.875 509.18351 528.74525 509.62109 526.48438 C 514.79922 519.48296 521.2172 515.54315 528.875 514.66797 C 532.52157 514.23038 534.3457 513.20996 534.3457 511.60547 C 534.3457 509.56339 531.71981 505.58909 526.46875 499.68164 C 534.56414 483.345 542.55114 465.25727 550.42773 445.41992 C 562.75314 470.36247 571.24841 491.51342 575.91602 508.87109 C 573.801 512.80939 572.74414 515.28755 572.74414 516.30859 C 572.74414 517.76722 573.50946 519.73713 575.04102 522.2168 C 578.54172 528.05131 580.69385 530.96875 581.49609 530.96875 C 582.29834 530.96875 583.9383 529.80256 586.41797 527.46875 C 591.23144 523.01993 593.63867 519.37362 593.63867 516.5293 C 593.63867 514.26842 592.9098 510.87526 591.45117 506.35352 C 599.61949 490.81912 609.17357 474.44619 620.11328 457.23438 C 631.27179 439.73084 640.68009 426.45756 648.33789 417.41406 C 646.14995 421.49822 642.64941 434.88083 637.83594 457.5625 C 633.67885 477.39984 630.28764 495.23248 627.66211 511.05859 C 627.15159 514.26758 627.11515 516.38326 627.55273 517.4043 C 627.91739 518.49827 629.30225 519.95601 631.70898 521.7793 C 636.74125 525.57173 640.49689 527.46875 642.97656 527.46875 C 645.1645 527.46875 646.58776 525.89972 647.24414 522.76367 C 649.9426 508.54205 652.89453 497.63955 656.10352 490.05469 C 656.61404 488.88778 656.87109 487.86541 656.87109 486.99023 C 656.87109 485.16695 656.17671 484.25586 654.79102 484.25586 C 653.62411 484.25586 652.64014 485.05762 651.83789 486.66211 C 649.0665 491.91317 646.84149 496.10809 645.16406 499.24414 C 649.46702 458.18375 658.72955 423.86886 672.95117 396.30078 C 676.45188 389.59109 679.91597 386.23633 683.34375 386.23633 C 683.85427 386.23633 684.54865 386.30922 685.42383 386.45508 C 686.37194 386.60094 687.06436 386.67383 687.50195 386.67383 C 689.83576 386.67383 691.00195 385.94496 691.00195 384.48633 C 691.00195 383.90288 690.74685 383.39267 690.23633 382.95508 C 681.55749 375.95366 675.50395 372.45312 672.07617 372.45312 z M 853.34766 397.72266 C 852.61834 397.72266 851.4157 398.67214 849.73828 400.56836 C 847.62327 403.12096 843.20969 407.31392 836.5 413.14844 C 835.84362 413.00257 835.40629 413.07546 835.1875 413.36719 C 835.04164 413.65891 835.07808 414.05979 835.29688 414.57031 C 835.5886 415.0079 835.98948 415.44522 836.5 415.88281 C 838.10449 417.04972 840.00151 417.85147 842.18945 418.28906 C 846.05482 419.09131 850.06557 418.07089 854.22266 415.22656 C 860.49476 410.77775 863.63086 407.49587 863.63086 405.38086 C 863.63086 404.28689 863.04776 403.30291 861.88086 402.42773 C 857.50497 399.29168 854.66042 397.72266 853.34766 397.72266 z M 809.36914 432.40234 C 808.3481 432.40234 806.05215 433.31343 802.47852 435.13672 C 800.43644 435.86603 799.59628 437.65372 799.96094 440.49805 C 800.39853 443.26944 799.74254 448.26417 797.99219 455.48438 C 797.70046 456.79714 797.55469 457.85596 797.55469 458.6582 C 797.55469 460.11683 798.10134 460.8457 799.19531 460.8457 C 799.8517 460.8457 801.53005 460.33549 804.22852 459.31445 C 806.34353 458.58514 807.58261 458.03653 807.94727 457.67188 C 808.74951 456.94256 809.47838 455.33904 810.13477 452.85938 C 811.88512 445.63917 812.76172 440.38738 812.76172 437.10547 C 812.76172 433.96942 811.63001 432.40234 809.36914 432.40234 z M 888.90234 434.80859 C 887.00613 434.80859 884.67178 436.34118 881.90039 439.4043 C 875.92001 446.11399 870.19447 456.90715 864.72461 471.78516 C 859.61941 485.49626 856.92063 496.21654 856.62891 503.94727 C 856.33718 510.65696 858.34353 516.09096 862.64648 520.24805 C 866.65771 524.11341 872.01883 526.26554 878.72852 526.70312 C 882.08336 527.65123 884.92596 528.125 887.25977 528.125 C 891.12513 528.125 893.82391 527.21196 895.35547 525.38867 C 901.62757 518.16846 906.69714 509.81897 910.5625 500.33789 C 910.92716 499.46271 911.10938 498.73384 911.10938 498.15039 C 911.10938 496.98349 910.63561 496.39844 909.6875 496.39844 C 908.73939 496.39844 907.68057 497.09282 906.51367 498.47852 C 894.55292 513.86704 885.47456 521.63343 879.27539 521.7793 C 872.20104 521.99809 868.66211 516.52765 868.66211 505.36914 C 868.66211 502.0143 869.06494 498.2951 869.86719 494.21094 C 870.88823 488.52229 872.92907 481.70343 875.99219 473.75391 C 879.71169 464.12696 883.61311 456.61567 887.69727 451.21875 C 891.41677 446.40528 894.55287 443.99805 897.10547 443.99805 C 897.54306 443.99805 898.12811 444.10738 898.85742 444.32617 C 899.58674 444.47203 900.13339 444.54492 900.49805 444.54492 C 903.6341 444.54492 905.27406 446.18684 905.41992 449.46875 C 905.63872 453.33411 904.50896 458.76616 902.0293 465.76758 C 901.08119 466.49689 900.60742 467.18932 900.60742 467.8457 C 900.60742 469.30433 902.64826 471.16491 906.73242 473.42578 C 909.50382 474.95734 911.54661 474.30136 912.85938 471.45703 C 915.99543 464.52855 917.56445 455.41179 917.56445 444.10742 C 917.56445 440.02326 914.68346 437.98047 908.92188 437.98047 C 906.00462 437.98047 903.05073 438.52908 900.06055 439.62305 C 894.51776 436.41406 890.79856 434.80859 888.90234 434.80859 z M 833.65625 436.12109 C 832.56228 436.12109 831.43253 436.74063 830.26562 437.98047 C 826.40026 442.28342 822.752 446.84278 819.32422 451.65625 C 818.66784 452.53143 818.33984 453.2603 818.33984 453.84375 C 818.33984 455.8129 819.54444 455.70357 821.95117 453.51562 L 828.73242 447.16992 C 830.40984 445.56543 831.57799 444.76367 832.23438 444.76367 C 833.10955 444.76367 833.43754 446.40559 833.21875 449.6875 C 832.6353 457.3453 830.04585 469.04955 825.45117 484.80273 C 820.6377 501.06644 816.26252 512.66331 812.32422 519.5918 C 811.52197 521.05043 811.12109 521.99796 811.12109 522.43555 C 811.12109 522.94607 812.06863 523.71138 813.96484 524.73242 C 816.95503 526.40984 819.32582 527.25 821.07617 527.25 C 822.82653 527.25 824.02916 526.40984 824.68555 524.73242 C 826.72763 519.3355 829.93662 513.13618 834.3125 506.13477 C 840.07408 496.94541 843.1373 491.95068 843.50195 491.14844 C 844.37713 489.10636 844.23136 488.08594 843.06445 488.08594 C 842.55393 488.08594 842.04372 488.41393 841.5332 489.07031 C 837.8137 494.10258 834.89626 497.56667 832.78125 499.46289 C 840.14732 476.56243 844.70472 460.18949 846.45508 450.34375 C 846.7468 448.66633 846.89258 447.17019 846.89258 445.85742 C 846.89258 443.08603 846.05438 441.19096 844.37695 440.16992 C 844.0123 439.95113 842.15172 439.40252 838.79688 438.52734 C 836.536 436.92285 834.82315 436.12109 833.65625 436.12109 z M 795.6543 436.13477 C 795.35345 436.10742 795.00269 436.1393 794.60156 436.23047 C 778.33786 439.80411 769.91353 446.1492 769.33008 455.26562 C 769.03835 459.05806 771.15403 466.60774 775.67578 477.91211 C 780.27046 489.5082 782.56836 497.60259 782.56836 502.19727 C 782.56836 504.74987 782.09264 506.90199 781.14453 508.65234 C 779.54004 512.08012 776.84321 514.23029 773.05078 515.10547 C 762.91331 516.5641 755.2543 517.47714 750.07617 517.8418 C 746.28374 518.20645 744.2429 519.37265 743.95117 521.3418 C 744.31583 523.16508 745.37269 524.22195 747.12305 524.51367 C 753.39515 525.46178 758.68337 526.26549 762.98633 526.92188 C 765.39306 527.28653 767.65257 527.39586 769.76758 527.25 C 773.04949 526.95827 775.52961 525.9359 777.20703 524.18555 C 778.301 523.01864 779.4672 520.90492 780.70703 517.8418 C 790.6257 514.63281 795.47661 508.65216 795.25781 499.90039 C 795.18488 495.67037 793.79807 489.5075 791.09961 481.41211 C 787.45304 470.18067 785.26642 463.10671 784.53711 460.18945 C 783.8078 457.19927 783.44336 454.71915 783.44336 452.75 C 783.44336 447.71773 787.38122 443.48832 795.25781 440.06055 C 796.42472 439.55003 797.00781 438.85565 797.00781 437.98047 C 797.00781 436.8318 796.55682 436.21681 795.6543 436.13477 z M 746.68555 437.65234 C 745.66451 437.65234 744.49831 438.08967 743.18555 438.96484 C 741.14347 440.27761 738.48113 444.65475 735.19922 452.09375 C 733.23007 456.54257 727.54096 466.09665 718.13281 480.75586 C 707.48483 497.38422 699.35205 508.68759 693.73633 514.66797 C 691.1108 517.36643 689.21573 518.7168 688.04883 518.7168 C 686.73606 518.7168 686.08008 517.14777 686.08008 514.01172 C 686.15301 504.4577 688.41251 492.09552 692.86133 476.92578 C 696.94549 462.92295 700.81046 453.15021 704.45703 447.60742 L 706.86523 443.99805 C 706.86523 443.34166 706.35502 442.68568 705.33398 442.0293 C 701.54155 439.69549 698.66055 438.52734 696.69141 438.52734 C 695.23278 438.52734 693.84597 439.33106 692.5332 440.93555 C 690.05354 444.0716 687.6847 448.48322 685.42383 454.17188 C 684.69451 455.99516 682.36017 459.78725 678.42188 465.54883 C 677.61963 466.78866 677.5103 467.62686 678.09375 468.06445 C 678.60427 468.42911 679.33314 468.21045 680.28125 467.4082 C 682.76092 465.14733 684.62149 463.43448 685.86133 462.26758 C 680.09975 476.05162 676.30571 493.37208 674.48242 514.23047 C 674.33656 515.17858 674.26367 516.05518 674.26367 516.85742 C 674.26367 521.23331 676.78023 523.85724 681.8125 524.73242 C 684.58389 526.40984 686.99112 527.25 689.0332 527.25 C 691.51287 527.25 693.81077 526.04541 695.92578 523.63867 C 705.4798 512.77189 717.29338 495.88875 731.36914 472.98828 C 727.06619 484.73024 723.38343 498.55017 720.32031 514.44922 C 719.591 518.53338 720.35631 521.37793 722.61719 522.98242 C 726.84721 525.82675 729.69176 527.25 731.15039 527.25 C 732.60902 527.25 733.77717 525.42587 734.65234 521.7793 C 736.11097 516.01772 739.17419 507.814 743.8418 497.16602 C 744.06059 496.6555 744.16992 496.17978 744.16992 495.74219 C 744.16992 494.35649 743.62131 493.66406 742.52734 493.66406 C 741.7251 493.66406 741.142 494.17427 740.77734 495.19531 C 737.86009 500.7381 735.37997 505.29745 733.33789 508.87109 C 738.15136 484.58493 745.4095 463.43398 755.10938 445.41992 C 755.32817 444.98233 755.69261 444.58145 756.20312 444.2168 C 756.71364 443.85214 756.96875 443.56059 756.96875 443.3418 C 756.96875 442.61248 755.50905 441.48273 752.5918 439.95117 C 749.67454 438.41961 747.70659 437.65234 746.68555 437.65234 z "
       transform="translate(0,308.26772)"
       id="path4147" />
  </g>
</svg>
