<?xml version="1.0" encoding="UTF-8" standalone="no"?>
<!-- Created with Inkscape (http://www.inkscape.org/) -->

<svg
   xmlns:dc="http://purl.org/dc/elements/1.1/"
   xmlns:cc="http://creativecommons.org/ns#"
   xmlns:rdf="http://www.w3.org/1999/02/22-rdf-syntax-ns#"
   xmlns:svg="http://www.w3.org/2000/svg"
   xmlns="http://www.w3.org/2000/svg"
   xmlns:sodipodi="http://sodipodi.sourceforge.net/DTD/sodipodi-0.dtd"
   xmlns:inkscape="http://www.inkscape.org/namespaces/inkscape"
   width="210mm"
   height="220mm"
   viewBox="0 0 744.09449 779.52756"
   id="svg2"
   version="1.1"
   inkscape:version="0.91 r13725"
   sodipodi:docname="logo.svg">
  <defs
     id="defs4" />
  <sodipodi:namedview
     id="base"
     pagecolor="#ffff00"
     bordercolor="#666666"
     borderopacity="1.0"
     inkscape:pageopacity="0"
     inkscape:pageshadow="2"
     inkscape:zoom="0.73617002"
     inkscape:cx="417.86878"
     inkscape:cy="315.73831"
     inkscape:document-units="px"
     inkscape:current-layer="layer1"
     showgrid="false"
     showguides="false"
     inkscape:window-width="1366"
     inkscape:window-height="705"
     inkscape:window-x="-8"
     inkscape:window-y="-8"
     inkscape:window-maximized="1" />
  <metadata
     id="metadata7">
    <rdf:RDF>
      <cc:Work
         rdf:about="">
        <dc:format>image/svg+xml</dc:format>
        <dc:type
           rdf:resource="http://purl.org/dc/dcmitype/StillImage" />
        <dc:title></dc:title>
      </cc:Work>
    </rdf:RDF>
  </metadata>
  <g
     inkscape:label="Capa 1"
     inkscape:groupmode="layer"
     id="layer1"
     transform="translate(0,-272.83464)">
    <rect
       style="opacity:1;fill:#ffffff;fill-opacity:1;stroke:#ffffff;stroke-width:0.20875597;stroke-linecap:butt;stroke-miterlimit:4;stroke-dasharray:none;stroke-dashoffset:0;stroke-opacity:1"
       id="rect4339"
       width="342.30347"
       height="198.31499"
       x="203.76167"
       y="826.87524" />
    <rect
       style="opacity:1;fill:#ffffff;fill-opacity:1;stroke:#ffffff;stroke-width:0.2;stroke-linecap:butt;stroke-miterlimit:4;stroke-dasharray:none;stroke-dashoffset:0;stroke-opacity:1"
       id="rect4337"
       width="146.70525"
       height="221.41624"
       x="-251.56908"
       y="287.27734"
       transform="matrix(0.71506188,-0.69906116,0.69906116,0.71506188,0,0)" />
    <rect
       style="opacity:1;fill:#ffffff;fill-opacity:1;stroke:#ffffff;stroke-width:0.16556589;stroke-linecap:butt;stroke-miterlimit:4;stroke-dasharray:none;stroke-dashoffset:0;stroke-opacity:1"
       id="rect4335"
       width="230.52652"
       height="232.22787"
       x="574.59802"
       y="-302.42636"
       transform="matrix(0.60790118,0.79401269,-0.80842357,0.58860116,0,0)" />
    <circle
       style="opacity:1;fill:#ffffff;fill-opacity:1;stroke:#ffffff;stroke-width:0.20440242;stroke-linecap:butt;stroke-miterlimit:4;stroke-dasharray:none;stroke-dashoffset:0;stroke-opacity:1"
       id="path4331"
       cx="357.31381"
       cy="622.04877"
       r="306.27921" />
    <ellipse
       style="opacity:1;fill:#999999;fill-opacity:1;stroke:#ffffff;stroke-width:0.05955789;stroke-linecap:butt;stroke-miterlimit:4;stroke-dasharray:none;stroke-dashoffset:0;stroke-opacity:1"
       id="path4143"
       cx="356.34866"
       cy="625.52985"
       rx="98.695961"
       ry="99.972198" />
    <ellipse
       ry="73.285591"
       rx="72.350029"
       cy="625.52985"
       cx="356.34866"
       id="ellipse4145"
       style="opacity:1;fill:#4d4d4d;fill-opacity:1;stroke:#ffffff;stroke-width:0.04365949;stroke-linecap:butt;stroke-miterlimit:4;stroke-dasharray:none;stroke-dashoffset:0;stroke-opacity:1" />
    <ellipse
       style="opacity:1;fill:#808080;fill-opacity:1;stroke:#ffffff;stroke-width:0.03319583;stroke-linecap:butt;stroke-miterlimit:4;stroke-dasharray:none;stroke-dashoffset:0;stroke-opacity:1"
       id="ellipse4147"
       cx="356.34866"
       cy="625.52985"
       rx="55.010235"
       ry="55.721573" />
    <path
       sodipodi:type="star"
       style="opacity:1;fill:#333333;fill-opacity:1;stroke:#ffffff;stroke-width:0.2;stroke-linecap:butt;stroke-miterlimit:4;stroke-dasharray:none;stroke-dashoffset:0;stroke-opacity:1"
       id="path4151"
       sodipodi:sides="6"
       sodipodi:cx="-1157.1429"
       sodipodi:cy="95.219345"
       sodipodi:r1="140.69797"
       sodipodi:r2="121.84802"
       sodipodi:arg1="0.52359878"
       sodipodi:arg2="1.0471976"
       inkscape:flatsided="true"
       inkscape:rounded="0"
       inkscape:randomized="0"
       d="m -1035.2949,165.56833 -121.848,70.34898 -121.8481,-70.34898 0,-140.697969 121.8481,-70.348983 121.848,70.348984 z"
       transform="matrix(0.09456277,0,0,0.0818925,466.18666,580.97134)" />
    <path
       transform="matrix(0.05520908,0,0,0.04781172,420.64881,584.21649)"
       d="m -1035.2949,165.56833 -121.848,70.34898 -121.8481,-70.34898 0,-140.697969 121.8481,-70.348983 121.848,70.348984 z"
       inkscape:randomized="0"
       inkscape:rounded="0"
       inkscape:flatsided="true"
       sodipodi:arg2="1.0471976"
       sodipodi:arg1="0.52359878"
       sodipodi:r2="121.84802"
       sodipodi:r1="140.69797"
       sodipodi:cy="95.219345"
       sodipodi:cx="-1157.1429"
       sodipodi:sides="6"
       id="path4153"
       style="opacity:1;fill:#808080;fill-opacity:1;stroke:#ffffff;stroke-width:0.2;stroke-linecap:butt;stroke-miterlimit:4;stroke-dasharray:none;stroke-dashoffset:0;stroke-opacity:1"
       sodipodi:type="star" />
    <path
       transform="matrix(0.09456277,0,0,0.0818925,488.33593,645.94254)"
       d="m -1035.2949,165.56833 -121.848,70.34898 -121.8481,-70.34898 0,-140.697969 121.8481,-70.348983 121.848,70.348984 z"
       inkscape:randomized="0"
       inkscape:rounded="0"
       inkscape:flatsided="true"
       sodipodi:arg2="1.0471976"
       sodipodi:arg1="0.52359878"
       sodipodi:r2="121.84802"
       sodipodi:r1="140.69797"
       sodipodi:cy="95.219345"
       sodipodi:cx="-1157.1429"
       sodipodi:sides="6"
       id="path4166"
       style="opacity:1;fill:#333333;fill-opacity:1;stroke:#ffffff;stroke-width:0.2;stroke-linecap:butt;stroke-miterlimit:4;stroke-dasharray:none;stroke-dashoffset:0;stroke-opacity:1"
       sodipodi:type="star" />
    <path
       sodipodi:type="star"
       style="opacity:1;fill:#808080;fill-opacity:1;stroke:#ffffff;stroke-width:0.2;stroke-linecap:butt;stroke-miterlimit:4;stroke-dasharray:none;stroke-dashoffset:0;stroke-opacity:1"
       id="path4168"
       sodipodi:sides="6"
       sodipodi:cx="-1157.1429"
       sodipodi:cy="95.219345"
       sodipodi:r1="140.69797"
       sodipodi:r2="121.84802"
       sodipodi:arg1="0.52359878"
       sodipodi:arg2="1.0471976"
       inkscape:flatsided="true"
       inkscape:rounded="0"
       inkscape:randomized="0"
       d="m -1035.2949,165.56833 -121.848,70.34898 -121.8481,-70.34898 0,-140.697969 121.8481,-70.348983 121.848,70.348984 z"
       transform="matrix(0.05520908,0,0,0.04781172,442.79808,649.18768)" />
    <path
       sodipodi:type="star"
       style="opacity:1;fill:#333333;fill-opacity:1;stroke:#ffffff;stroke-width:0.2;stroke-linecap:butt;stroke-miterlimit:4;stroke-dasharray:none;stroke-dashoffset:0;stroke-opacity:1"
       id="path4170"
       sodipodi:sides="6"
       sodipodi:cx="-1157.1429"
       sodipodi:cy="95.219345"
       sodipodi:r1="140.69797"
       sodipodi:r2="121.84802"
       sodipodi:arg1="0.52359878"
       sodipodi:arg2="1.0471976"
       inkscape:flatsided="true"
       inkscape:rounded="0"
       inkscape:randomized="0"
       d="m -1035.2949,165.56833 -121.848,70.34898 -121.8481,-70.34898 0,-140.697969 121.8481,-70.348983 121.848,70.348984 z"
       transform="matrix(0.09456277,0,0,0.0818925,498.67226,610.50371)" />
    <path
       transform="matrix(0.05520908,0,0,0.04781172,453.1344,613.74885)"
       d="m -1035.2949,165.56833 -121.848,70.34898 -121.8481,-70.34898 0,-140.697969 121.8481,-70.348983 121.848,70.348984 z"
       inkscape:randomized="0"
       inkscape:rounded="0"
       inkscape:flatsided="true"
       sodipodi:arg2="1.0471976"
       sodipodi:arg1="0.52359878"
       sodipodi:r2="121.84802"
       sodipodi:r1="140.69797"
       sodipodi:cy="95.219345"
       sodipodi:cx="-1157.1429"
       sodipodi:sides="6"
       id="path4172"
       style="opacity:1;fill:#808080;fill-opacity:1;stroke:#ffffff;stroke-width:0.2;stroke-linecap:butt;stroke-miterlimit:4;stroke-dasharray:none;stroke-dashoffset:0;stroke-opacity:1"
       sodipodi:type="star" />
    <path
       transform="matrix(0.09456277,0,0,0.0818925,498.67226,610.50371)"
       d="m -1035.2949,165.56833 -121.848,70.34898 -121.8481,-70.34898 0,-140.697969 121.8481,-70.348983 121.848,70.348984 z"
       inkscape:randomized="0"
       inkscape:rounded="0"
       inkscape:flatsided="true"
       sodipodi:arg2="1.0471976"
       sodipodi:arg1="0.52359878"
       sodipodi:r2="121.84802"
       sodipodi:r1="140.69797"
       sodipodi:cy="95.219345"
       sodipodi:cx="-1157.1429"
       sodipodi:sides="6"
       id="path4174"
       style="opacity:1;fill:#333333;fill-opacity:1;stroke:#ffffff;stroke-width:0.2;stroke-linecap:butt;stroke-miterlimit:4;stroke-dasharray:none;stroke-dashoffset:0;stroke-opacity:1"
       sodipodi:type="star" />
    <path
       sodipodi:type="star"
       style="opacity:1;fill:#808080;fill-opacity:1;stroke:#ffffff;stroke-width:0.2;stroke-linecap:butt;stroke-miterlimit:4;stroke-dasharray:none;stroke-dashoffset:0;stroke-opacity:1"
       id="path4176"
       sodipodi:sides="6"
       sodipodi:cx="-1157.1429"
       sodipodi:cy="95.219345"
       sodipodi:r1="140.69797"
       sodipodi:r2="121.84802"
       sodipodi:arg1="0.52359878"
       sodipodi:arg2="1.0471976"
       inkscape:flatsided="true"
       inkscape:rounded="0"
       inkscape:randomized="0"
       d="m -1035.2949,165.56833 -121.848,70.34898 -121.8481,-70.34898 0,-140.697969 121.8481,-70.348983 121.848,70.348984 z"
       transform="matrix(0.05520908,0,0,0.04781172,453.1344,613.74885)" />
    <path
       sodipodi:type="star"
       style="opacity:1;fill:#333333;fill-opacity:1;stroke:#ffffff;stroke-width:0.2;stroke-linecap:butt;stroke-miterlimit:4;stroke-dasharray:none;stroke-dashoffset:0;stroke-opacity:1"
       id="path4178"
       sodipodi:sides="6"
       sodipodi:cx="-1157.1429"
       sodipodi:cy="95.219345"
       sodipodi:r1="140.69797"
       sodipodi:r2="121.84802"
       sodipodi:arg1="0.52359878"
       sodipodi:arg2="1.0471976"
       inkscape:flatsided="true"
       inkscape:rounded="0"
       inkscape:randomized="0"
       d="m -1035.2949,165.56833 -121.848,70.34898 -121.8481,-70.34898 0,-140.697969 121.8481,-70.348983 121.848,70.348984 z"
       transform="matrix(0.09456277,0,0,0.0818925,446.99063,645.94254)" />
    <path
       transform="matrix(0.05520908,0,0,0.04781172,401.45277,649.18768)"
       d="m -1035.2949,165.56833 -121.848,70.34898 -121.8481,-70.34898 0,-140.697969 121.8481,-70.348983 121.848,70.348984 z"
       inkscape:randomized="0"
       inkscape:rounded="0"
       inkscape:flatsided="true"
       sodipodi:arg2="1.0471976"
       sodipodi:arg1="0.52359878"
       sodipodi:r2="121.84802"
       sodipodi:r1="140.69797"
       sodipodi:cy="95.219345"
       sodipodi:cx="-1157.1429"
       sodipodi:sides="6"
       id="path4180"
       style="opacity:1;fill:#808080;fill-opacity:1;stroke:#ffffff;stroke-width:0.2;stroke-linecap:butt;stroke-miterlimit:4;stroke-dasharray:none;stroke-dashoffset:0;stroke-opacity:1"
       sodipodi:type="star" />
    <path
       transform="matrix(0.09456277,0,0,0.0818925,432.22445,610.50371)"
       d="m -1035.2949,165.56833 -121.848,70.34898 -121.8481,-70.34898 0,-140.697969 121.8481,-70.348983 121.848,70.348984 z"
       inkscape:randomized="0"
       inkscape:rounded="0"
       inkscape:flatsided="true"
       sodipodi:arg2="1.0471976"
       sodipodi:arg1="0.52359878"
       sodipodi:r2="121.84802"
       sodipodi:r1="140.69797"
       sodipodi:cy="95.219345"
       sodipodi:cx="-1157.1429"
       sodipodi:sides="6"
       id="path4182"
       style="opacity:1;fill:#333333;fill-opacity:1;stroke:#ffffff;stroke-width:0.2;stroke-linecap:butt;stroke-miterlimit:4;stroke-dasharray:none;stroke-dashoffset:0;stroke-opacity:1"
       sodipodi:type="star" />
    <path
       sodipodi:type="star"
       style="opacity:1;fill:#808080;fill-opacity:1;stroke:#ffffff;stroke-width:0.2;stroke-linecap:butt;stroke-miterlimit:4;stroke-dasharray:none;stroke-dashoffset:0;stroke-opacity:1"
       id="path4184"
       sodipodi:sides="6"
       sodipodi:cx="-1157.1429"
       sodipodi:cy="95.219345"
       sodipodi:r1="140.69797"
       sodipodi:r2="121.84802"
       sodipodi:arg1="0.52359878"
       sodipodi:arg2="1.0471976"
       inkscape:flatsided="true"
       inkscape:rounded="0"
       inkscape:randomized="0"
       d="m -1035.2949,165.56833 -121.848,70.34898 -121.8481,-70.34898 0,-140.697969 121.8481,-70.348983 121.848,70.348984 z"
       transform="matrix(0.05520908,0,0,0.04781172,386.68659,613.74885)" />
    <ellipse
       ry="18.817122"
       rx="18.576902"
       cy="625.52985"
       cx="356.34866"
       id="ellipse4186"
       style="opacity:1;fill:#333333;fill-opacity:1;stroke:#ffffff;stroke-width:0.0112102;stroke-linecap:butt;stroke-miterlimit:4;stroke-dasharray:none;stroke-dashoffset:0;stroke-opacity:1" />
    <path
       id="path4205"
       style="opacity:1;fill:#666666;fill-opacity:1;stroke:#ffffff;stroke-width:0.15373094;stroke-linecap:butt;stroke-miterlimit:4;stroke-dasharray:none;stroke-dashoffset:0;stroke-opacity:1"
       d="m 410.67289,677.95712 51.10031,152.18871 5.86441,-6.64218 -44.25905,-135.3915 138.10001,29.09736 6.54367,-7.41226 -157.34933,-31.84011 z m -111.72988,-6.1952 -153.48142,47.07545 6.48545,6.03726 136.50992,-40.67881 -32.72345,137.28598 7.23739,6.73657 35.97207,-156.45642 z m 111.67501,-104.00573 156.22564,-36.96205 -6.07777,-6.44751 -138.87298,31.68626 41.61028,-134.85864 -6.78248,-7.19438 -46.10266,153.7763 z m -102.10158,-2.95323 -156.22564,-36.96205 6.07777,-6.44751 138.87299,31.68625 -41.61029,-134.85863 6.78249,-7.19439 46.10266,153.77631 z m -25.47524,69.2426 -144.83803,69.24297 0.68701,-8.83388 128.01595,-62.46309 -117.01714,-78.90029 0.76711,-9.8576 132.38505,90.81189 z m 148.95514,-7.38309 144.83803,69.24297 -0.68701,-8.83389 -128.01596,-62.46309 117.01714,-78.90027 -0.7671,-9.85762 -132.38506,90.8119 z m -76.36253,-77.37135 -80.73572,-138.76017 8.86052,-0.03 72.61688,122.54187 69.17292,-123.01778 9.88736,-0.0331 -79.80196,139.29913 z m 5.90648,153.27881 -80.73572,138.76017 8.86051,0.03 72.61688,-122.54187 69.17293,123.01777 9.88736,0.0331 -79.80196,-139.29915 z"
       inkscape:connector-curvature="0" />
    <path
       d="m 423.43392,660.38802 92.87761,130.94425 3.69609,-8.05287 -81.47652,-116.83877 140.61857,-12.02856 4.124,-8.98631 -159.83973,14.96228 z m -108.75766,26.33853 -133.34431,89.39763 7.95274,3.90685 118.94356,-78.3719 8.32188,140.88652 8.87462,4.35919 -10.74851,-160.17825 z m 76.87701,-131.82726 138.89254,-80.50779 -7.68091,-4.41738 -123.80314,70.44507 0.88726,-141.1293 -8.57131,-4.92888 0.27558,160.53825 z m -98.60333,26.6615 -160.24323,9.73408 3.95659,-7.92812 142.10633,-9.77326 -78.78674,-117.09361 4.41555,-8.8467 88.55146,133.9076 z m -4.39101,73.64948 -118.66688,108.12406 -1.89366,-8.65584 104.51985,-96.77458 -134.8182,-41.74107 -2.11265,-9.65908 152.9715,48.70652 z m 140.47485,-50.08953 158.66426,24.46012 -3.20913,-8.25901 -140.60092,-22.8277 89.24241,-109.33462 -3.58149,-9.21596 -100.51509,125.17715 z m -95.45455,-52.01912 -117.37164,-109.52873 8.47423,-2.58785 104.91464,96.34645 30.69516,-137.75366 9.45644,-2.88731 -36.16884,156.41106 z m 49.92459,145.04072 -37.21849,156.16475 8.4916,-2.53031 34.12979,-138.29273 101.75491,97.79676 9.47554,-2.82401 -116.63333,-110.31441 z"
       style="opacity:1;fill:#666666;fill-opacity:1;stroke:#ffffff;stroke-width:0.15373094;stroke-linecap:butt;stroke-miterlimit:4;stroke-dasharray:none;stroke-dashoffset:0;stroke-opacity:1"
       id="path4208"
       inkscape:connector-curvature="0" />
    <flowRoot
       xml:space="preserve"
       id="flowRoot4227"
       style="font-style:normal;font-variant:normal;font-weight:normal;font-stretch:normal;font-size:180px;line-height:125%;font-family:'League Gothic';-inkscape-font-specification:'League Gothic';letter-spacing:0px;word-spacing:0px;fill:#000000;fill-opacity:1;stroke:none;stroke-width:1px;stroke-linecap:butt;stroke-linejoin:miter;stroke-opacity:1"><flowRegion
         id="flowRegion4229"><rect
           id="rect4231"
           width="134.47295"
           height="664.68054"
           x="111.42044"
           y="199.41954"
           style="font-style:normal;font-variant:normal;font-weight:normal;font-stretch:normal;font-family:'League Gothic';-inkscape-font-specification:'League Gothic'" /></flowRegion><flowPara
         id="flowPara4233"></flowPara></flowRoot>    <g
       transform="matrix(0.68012657,-0.73309471,0.73309471,0.68012657,0,0)"
       style="font-style:normal;font-variant:normal;font-weight:normal;font-stretch:normal;font-size:192.03843689px;line-height:125%;font-family:'League Gothic';-inkscape-font-specification:'League Gothic';letter-spacing:0px;word-spacing:0px;fill:#000000;fill-opacity:1;stroke:none;stroke-width:1px;stroke-linecap:butt;stroke-linejoin:miter;stroke-opacity:1"
       id="text4235" />
    <g
       transform="matrix(0.58982301,0.80753255,-0.80753255,0.58982301,0,0)"
       style="font-style:normal;font-variant:normal;font-weight:normal;font-stretch:normal;font-size:192.03843689px;line-height:125%;font-family:'League Gothic';-inkscape-font-specification:'League Gothic';letter-spacing:0px;word-spacing:0px;fill:#000000;fill-opacity:1;stroke:none;stroke-width:1px;stroke-linecap:butt;stroke-linejoin:miter;stroke-opacity:1"
       id="text4239" />
    <g
       transform="matrix(0.76834898,-0.02167572,0.02167572,0.76834898,821.93375,215.22907)"
       inkscape:transform-center-x="-16.137411"
       inkscape:transform-center-y="7.3987038"
       style="font-style:normal;font-variant:normal;font-weight:normal;font-stretch:normal;font-size:192.03843689px;line-height:125%;font-family:'League Gothic';-inkscape-font-specification:'League Gothic';letter-spacing:0px;word-spacing:0px;fill:#000000;fill-opacity:1;stroke:none;stroke-width:1px;stroke-linecap:butt;stroke-linejoin:miter;stroke-opacity:1"
       id="text4243">
      <path
         id="path4328"
         d="m -452.24849,1016.7485 c 0.19204,0.192 0.57611,0.192 1.15223,0.192 0.96019,0.1921 5.76115,0.5761 8.83377,-1.7283 3.07261,-2.3045 5.18504,-5.5691 6.33727,-9.6019 0.57611,-1.9204 0.76815,-3.8408 0.76815,-5.7612 l -17.85957,-108.11764 19.0118,0 7.68154,64.52492 0.38407,5.37708 0.76816,0 0.38408,-5.37708 7.68153,-64.52492 19.01181,0 -18.62773,112.91864 c -0.96019,7.4895 -3.84077,14.7869 -8.44969,20.356 -4.60892,5.5692 -10.75415,9.4099 -18.43569,9.4099 -0.57612,0 -1.34427,0 -2.30446,0 -1.72835,0 -4.03281,-0.192 -6.33727,-0.3841 l 0,-17.2834 z m -7.56753,-57.61154 0,12.09842 c -0.57612,10.17803 -3.64873,17.28346 -10.56211,22.85257 -3.4567,2.88058 -8.25766,4.22485 -14.59493,4.22485 -12.48249,0 -18.81976,-6.91339 -21.89238,-13.82677 -1.72834,-4.03281 -2.88057,-8.64173 -3.07261,-13.82677 l 0,-52.81057 c 0.57611,-10.17804 3.84077,-17.66753 10.75415,-23.42869 3.26465,-2.88057 8.06561,-4.22484 14.40288,-4.22484 12.4825,0 18.81977,6.91338 21.89238,13.63473 1.72835,4.0328 2.88058,8.44969 3.07262,13.44269 l 0,30.53411 -32.07042,0 0,22.85257 c 0.19204,4.03281 1.34427,6.91339 3.07262,9.02581 0.96019,0.96019 2.30446,1.53631 4.0328,1.53631 3.64873,0 5.37708,-2.30447 6.14523,-5.18504 0.57612,-1.53631 0.76816,-3.26466 0.76816,-5.37708 l 0,-11.5223 18.05161,0 z m -32.07042,-26.50131 14.01881,0 0,-14.78696 c 0,-4.03281 -0.76816,-6.91338 -2.68854,-9.21784 -0.96019,-0.9602 -2.4965,-1.53631 -4.22485,-1.53631 -3.64873,0 -5.18504,2.4965 -6.14523,5.37708 -0.57611,1.5363 -0.76815,3.26465 -0.96019,5.37707 l 0,14.78696 z m -62.00741,64.14084 -19.39588,0 0,-105.04503 19.39588,0 0,8.83377 c 0.38408,-0.19204 1.15223,-0.96019 2.30446,-2.11242 2.11243,-2.11242 4.993,-4.993 8.44969,-6.91338 1.72835,-0.9602 3.26466,-1.34427 4.993,-1.34427 5.18504,0 8.83377,3.07261 11.13823,6.91338 2.30446,4.03281 3.45669,9.21785 3.45669,13.63473 l 0,86.03322 -19.39588,0 0,-83.15264 c 0,-4.03281 -2.30446,-4.60893 -4.60892,-4.60893 -2.11242,0 -3.26465,1.15223 -4.60892,2.4965 -0.57612,0.76816 -1.15223,1.53631 -1.72835,2.4965 l 0,82.76857 z m -27.86358,-85.07303 c -1.72834,-0.57611 -3.64873,-0.76815 -5.37707,-0.76815 -3.07262,0 -6.72135,0.38407 -9.79396,3.26465 -3.64873,3.07262 -4.22485,6.33727 -4.22485,9.60192 l 0,72.97461 -19.39588,0 0,-105.04503 19.39588,0 0,11.71435 c 0.19204,-1.34427 1.53631,-4.60892 4.60892,-7.68154 3.07262,-2.88058 7.68154,-5.56911 14.78696,-5.56911 l 0,21.5083 z m -73.72175,-19.972 19.39588,0 0,105.04503 -19.39588,0 0,-8.83377 c -0.38408,0.19204 -1.15223,0.96019 -2.11242,1.92039 -2.30446,2.30446 -4.993,4.99299 -8.44969,6.91338 -1.72835,0.96019 -3.4567,1.53631 -5.18504,1.53631 -5.18504,0 -8.83377,-3.07262 -11.13823,-7.10543 -2.30446,-3.84076 -3.45669,-9.0258 -3.45669,-13.44269 l 0,-86.03322 19.39588,0 0,83.15265 c 0,4.0328 2.30446,4.60892 4.60892,4.60892 2.11242,0 3.26466,-1.15223 4.60892,-2.4965 0.57612,-0.57612 1.15223,-1.53631 1.72835,-2.4965 l 0,-82.76857 z m -43.46069,79.50392 c -0.57612,10.17803 -3.64873,17.28346 -10.37008,22.85257 -3.45669,2.88058 -8.25765,4.22485 -14.59492,4.22485 -12.4825,0 -18.62773,-6.91339 -21.70034,-13.82677 -1.72835,-4.03281 -2.88058,-8.64173 -3.07262,-13.82677 l 0,-52.81057 c 0.57612,-10.17804 3.64873,-17.66753 10.37008,-23.42869 3.26465,-2.88057 8.06561,-4.22484 14.40288,-4.22484 12.4825,0 18.81977,6.91338 21.89238,13.63473 1.72835,4.0328 2.88058,8.44969 3.07262,13.44269 l 0,53.9628 z m -18.24365,-53.38669 c 0.19203,-4.03281 -0.57612,-6.91338 -2.4965,-9.21784 -0.9602,-0.9602 -2.4965,-1.53631 -4.22485,-1.53631 -3.64873,0 -5.18504,2.4965 -5.95319,5.37708 -0.57612,1.5363 -0.76815,3.26465 -0.57612,5.37707 l 0,52.81057 c -0.19203,4.03281 0.76816,6.91339 2.4965,9.02581 0.9602,0.96019 2.30446,1.53631 4.03281,1.53631 3.64873,0 5.37708,-2.30447 6.14523,-5.18504 0.57612,-1.53631 0.76815,-3.26466 0.57612,-5.37708 l 0,-52.81057 z m -76.05323,59.91599 c 4.03281,0.57612 7.10543,-0.38407 9.40989,-3.45669 1.15223,-1.34427 1.72834,-3.64873 1.72834,-6.91338 l 0,-111.76637 20.74015,0 0,115.03102 c 0,7.68154 -1.92038,14.78696 -6.72134,19.972 -4.80096,5.18504 -12.86658,8.25765 -25.15704,7.4895 l 0,-20.35608 z m 511.81304,-591.40965 -10.99391,-15.97919 5.69555,-3.91861 c -4.38182,-0.94796 -7.91309,-2.0149 -11.40514,-4.04123 -1.87955,-1.03785 -3.28447,-2.40224 -4.26413,-3.82613 -3.04782,-4.42987 -2.58462,-9.17746 -0.56842,-13.36184 1.74914,-4.23374 5.3677,-8.12196 9.00652,-10.62552 l 55.2152,-37.98884 c 3.63882,-2.50356 8.56359,-4.49327 13.30105,-4.7224 4.4704,-0.2785 9.06992,0.98588 12.11774,5.41575 2.06816,3.00599 2.50486,7.36754 2.3973,10.93804 -0.12781,2.18584 -0.36447,4.21348 -0.65049,6.50816 l 35.43898,-24.38252 10.99391,15.97919 -116.28416,80.00514 z m 56.56165,-62.45836 c 2.53135,-1.74161 3.58817,-5.96521 1.95541,-8.33836 -1.63276,-2.37315 -5.15391,-2.74776 -8.15989,-0.6796 l -48.57039,33.41711 c -3.00599,2.06816 -3.91472,5.49059 -2.28196,7.86374 1.63276,2.37315 5.48045,3.22238 8.48644,1.15422 l 48.57039,-33.41711 z M -261.6318,273.8414 c 1.42389,-0.97965 3.63883,-2.50356 4.89437,-4.06669 1.1467,-1.72135 1.38337,-3.74898 -0.0317,-5.80571 -1.85046,-2.68957 -4.66914,-2.38198 -7.52705,-1.115 -1.37453,0.7126 -2.90726,1.53404 -4.33116,2.5137 -1.42388,0.97965 -2.84777,1.95931 -4.11345,2.83011 l -10.9939,-15.97918 3.63883,-2.50357 c 6.32838,-4.35401 13.65669,-5.89949 20.54077,-5.04142 6.88407,0.85807 13.11635,4.49559 17.36152,10.66577 3.59207,5.22092 4.80086,11.38227 3.8238,17.41581 -0.97705,6.03353 -4.35764,11.62284 -10.0532,15.54146 l -53.15847,36.57378 c -7.75228,5.33368 -10.90634,8.20301 -14.26797,11.44826 l -10.7762,-15.66276 c 0.76065,-2.62124 4.8741,-5.45136 5.98157,-6.21331 l -0.76195,-1.10747 c -1.96814,0.18861 -5.00453,0.17978 -8.26874,-0.8378 -3.26421,-1.01759 -6.59805,-3.15277 -8.77506,-6.31696 -1.41506,-2.05673 -2.90987,-5.92338 -1.48729,-10.63175 1.15553,-4.75773 5.01076,-10.67358 14.02871,-16.87806 9.65079,-6.63988 18.57133,-8.58153 25.93004,-8.05002 7.3587,0.53152 13.6302,3.20966 18.40819,5.74984 4.77799,2.54019 8.27004,4.56652 10.44575,4.002 l 9.49258,-6.53103 z m -24.20609,16.65413 c -8.65607,-5.46642 -18.69422,-3.45514 -26.92113,2.20509 -1.10746,0.76195 -2.89713,2.22637 -4.20203,4.05656 -1.46312,1.93905 -2.12505,4.02617 -0.81885,5.92469 2.50357,3.63882 6.78666,5.1209 9.79265,3.05274 l 22.14936,-15.23908 z m -44.39536,-20.14378 c -8.71167,5.29445 -16.30704,6.79056 -24.70489,4.40989 -4.33245,-1.21502 -8.16118,-4.40831 -11.75325,-9.62923 -7.07529,-10.28363 -4.86296,-19.26496 -0.90901,-25.71494 2.34275,-3.70975 5.48668,-7.27142 9.64949,-10.36859 l 43.50768,-29.9339 c 8.71167,-5.29445 16.62346,-7.00827 25.17952,-4.73644 4.2236,1.05681 8.05234,4.2501 11.6444,9.47102 7.07529,10.28363 4.9718,19.42318 1.17607,25.7643 -2.34275,3.70975 -5.32847,7.16257 -9.33307,10.15089 l -44.45694,30.587 z m 33.64151,-45.29037 c 3.43125,-2.12765 5.369,-4.39325 6.17901,-7.28156 0.24679,-1.3353 -0.14938,-2.92753 -1.12903,-4.35142 -2.06816,-3.00598 -4.99569,-2.8566 -7.80424,-1.85668 -1.59224,0.39618 -3.12497,1.21762 -4.75643,2.57319 l -43.50768,29.93389 c -3.43125,2.12765 -5.26015,4.55146 -6.0208,7.1727 -0.2468,1.33531 0.0405,2.76932 1.02018,4.19321 2.06816,3.00599 4.94634,3.12367 7.75489,2.12375 1.59222,-0.39617 3.12496,-1.21762 4.75642,-2.57318 l 43.50768,-29.9339 z m -100.21864,-6.41609 42.94939,-42.60341 -3.15667,-4.58808 -49.04502,33.74366 -11.75585,-17.08665 116.28416,-80.00515 11.75585,17.08666 c 14.04172,20.40905 8.47919,37.05668 -13.51196,52.1869 -11.54932,7.94609 -24.05932,12.12424 -32.95206,8.68546 l -48.81198,49.66726 -11.75586,-17.08665 z m 55.61369,-58.07655 c 1.63276,2.37315 4.12619,5.31964 8.08274,6.32709 3.95654,1.00745 9.64327,0.12521 17.87017,-5.53501 8.2269,-5.66023 11.24172,-10.76478 11.71505,-14.82004 0.47333,-4.05527 -1.54548,-7.32831 -3.17823,-9.70145 l -34.48973,23.72941 z m -495.95211,73.96768 c 0.27157,-0.003 0.54063,-0.2766 0.94421,-0.68773 0.8097,-0.55069 4.44699,-3.70772 4.95493,-7.51475 0.50794,-3.80703 -0.34198,-7.60149 -2.41272,-11.24885 -0.96684,-1.75641 -2.20276,-3.23874 -3.57319,-4.58402 l -89.66648,-62.99453 13.31832,-13.56728 51.42766,39.71985 4.10627,3.49271 0.53812,-0.54817 -3.56816,-4.04089 -40.66537,-50.68331 13.31831,-13.56727 67.53215,92.39595 c 4.67205,5.93183 7.86176,13.09955 8.60733,20.28992 0.74557,7.19037 -0.81848,14.26632 -6.19962,19.74805 -0.40358,0.41113 -0.9417,0.9593 -1.61434,1.64452 -1.21075,1.23338 -2.96214,2.74338 -4.71353,4.25337 l -12.33389,-12.10757 z m -52.10545,24.56957 -72.59643,-52.69619 -4.78646,-3.62221 -0.80717,0.82226 67.56231,66.32255 -13.45285,13.70432 -100.72675,-98.87844 17.75774,-18.08971 54.65635,36.43082 6.01734,4.56139 0.26905,-0.27408 -4.67205,-5.93183 -37.4367,-53.97235 17.75777,-18.08971 100.72676,98.87845 -13.45285,13.70433 -67.56231,-66.32255 -0.80717,0.82226 3.71023,4.71855 54.0315,71.60815 -6.18831,6.30399 z m 278.19463,-78.18948 a 334.28571,334.28571 0 0 0 -52.07443,3.0132 l -19.61966,21.07425 34.49082,4.62095 -31.61369,34.89192 24.22956,-32.52499 -32.72818,-3.59036 24.57448,-24.38898 a 334.28571,334.28571 0 0 0 -59.57017,13.42314 l -16.03864,25.59306 34.7413,-1.97228 -24.46067,40.23248 17.65781,-36.51462 -32.82025,2.6517 20.36025,-29.80294 a 334.28571,334.28571 0 0 0 -59.23325,25.85947 l -11.32708,30.34694 33.63603,-8.92025 -15.86778,44.33188 9.95068,-39.32097 -31.61381,9.20006 14.83664,-35.41601 a 334.28571,334.28571 0 0 0 -171.08887,281.93788 334.28571,334.28571 0 0 0 0.11371,5.18105 l 25.28415,-31.60621 7.06077,32.15916 29.75589,-27.56248 -31.32026,35.15616 -8.27471,-33.80148 -22.5006,25.95395 a 334.28571,334.28571 0 0 0 4.33608,58.374 l 19.69073,-35.92191 12.50342,30.46041 24.55485,-32.28134 -24.78913,40.03172 -13.97799,-31.86779 -17.94524,29.87303 a 334.28571,334.28571 0 0 0 16.71472,62.22851 l 12.74398,-39.57042 18.02512,27.55246 18.02201,-36.33436 -16.78816,43.98938 -19.74274,-28.65602 -12.17902,33.25768 a 334.28571,334.28571 0 0 0 30.96346,62.33544 l 4.64359,-42.42693 23.19996,23.36469 10.34247,-39.21809 -7.59461,46.46643 -25.10386,-24.09836 -5.39434,36.0712 a 334.28571,334.28571 0 0 0 272.38123,154.47098 334.28571,334.28571 0 0 0 11.86944,-0.25914 l -30.40467,-23.82586 32.08816,-7.38322 -27.85953,-29.47703 35.46701,30.96755 -33.71523,8.61126 24.83676,21.0994 a 334.28571,334.28571 0 0 0 56.92276,-5.11559 l -33.54229,-17.95106 30.33412,-12.80594 -32.52694,-24.22961 40.27757,24.38574 -31.72442,14.29857 27.60669,16.20681 a 334.28571,334.28571 0 0 0 59.96445,-16.80203 l -35.00571,-10.88796 27.37263,-18.29984 -36.51462,-17.65781 44.15618,16.34739 -28.45695,20.02775 28.99088,10.29038 a 334.28571,334.28571 0 0 0 58.64985,-29.69776 l -34.1465,-3.39004 23.12899,-23.43326 -39.31901,-9.95063 46.54205,7.12975 -23.8472,25.34346 28.26924,3.94133 a 334.28571,334.28571 0 0 0 154.1672,-272.21003 334.28571,334.28571 0 0 0 -0.41654,-19.10333 l -13.73842,-17.78121 -10.16711,33.27926 -29.28845,-36.86597 28.15467,29.19618 8.86258,-31.70995 16.15131,22.70472 a 334.28571,334.28571 0 0 0 -6.48972,-55.79504 l -16.44658,-15.00881 -4.27443,34.53577 -35.20856,-31.26311 32.76667,23.90421 3.26119,-32.76481 19.62906,19.38741 a 334.28571,334.28571 0 0 0 -17.89826,-58.92268 l -18.53086,-11.35716 2.31867,34.72177 -40.47442,-24.05717 36.68909,17.29149 -2.97886,-32.7904 22.44514,15.00609 a 334.28571,334.28571 0 0 0 -30.89417,-57.79653 l -19.59495,-7.09055 9.25692,33.54587 -44.48708,-15.42276 39.41616,9.55477 -9.51535,-31.51914 24.13092,9.82697 A 334.28571,334.28571 0 0 0 -606.01591,181.23856 l -22.53477,17.05295 33.17607,10.50028 -37.15834,28.91677 29.47703,-27.85953 -31.61892,-9.18044 27.96656,-19.47496 a 334.28571,334.28571 0 0 0 -4.35134,-0.27712 z m -2.73855,97.07466 a 237.17191,237.17191 0 0 1 230.38941,243.7657 237.17191,237.17191 0 0 1 -243.76569,230.38941 237.17191,237.17191 0 0 1 -230.38942,-243.76569 237.17191,237.17191 0 0 1 243.7657,-230.38942 z"
         inkscape:connector-curvature="0" />
    </g>
    <flowRoot
       xml:space="preserve"
       id="flowRoot4247"
       style="font-style:normal;font-weight:normal;font-size:180px;line-height:125%;font-family:sans-serif;letter-spacing:0px;word-spacing:0px;fill:#000000;fill-opacity:1;stroke:none;stroke-width:1px;stroke-linecap:butt;stroke-linejoin:miter;stroke-opacity:1"><flowRegion
         id="flowRegion4249"><rect
           id="rect4251"
           width="1410.0448"
           height="1041.2048"
           x="-61.473347"
           y="-96.420937" /></flowRegion><flowPara
         id="flowPara4253"></flowPara></flowRoot>  </g>
</svg>
